<svg xmlns="http://www.w3.org/2000/svg" viewBox="0 0 64 64">
  <defs>
    <linearGradient id="bg" x1="0" y1="0" x2="1" y2="1">
      <stop offset="0%" stop-color="#f5a6c2"/>
      <stop offset="100%" stop-color="#c65a78"/>
    </linearGradient>
  </defs>
  <circle cx="32" cy="32" r="32" fill="url(#bg)"/>
  <path d="M32 12 L52 28 V50 a3 3 0 0 1 -3 3 H15 a3 3 0 0 1 -3 -3 V28 Z" fill="#fffdfb"/>
  <path d="M32 12 L52 28 H45 L32 18 L19 28 H12 Z" fill="#eec27a"/>
  <path d="M32 34.5 c-3 -4 -9 -2.5 -9 2.7 c0 5 6 8.3 9 11.3 c3 -3 9 -6.3 9 -11.3 c0 -5.2 -6 -6.7 -9 -2.7 Z" fill="#c65a78"/>
</svg>
